<svg width="25" height="24" viewBox="0 0 25 24" fill="none" xmlns="http://www.w3.org/2000/svg">
<g clip-path="url(#clip0_29_754)">
<path d="M24.5 2C21.7291 2 18.9898 2.69824 16.5762 4.02054C15.2836 4.72838 14.0899 5.60642 13.0294 6.63196C12.7798 6.87198 12.5355 7.12335 12.3016 7.37995C11.5196 8.23879 10.826 9.18141 10.2436 10.1808C10.0369 10.5395 9.8075 10.8895 9.56229 11.2238C9.52988 11.2674 9.49923 11.3111 9.4642 11.3538C7.31949 14.1826 4.05205 15.8042 0.5 15.8042V21.0306C3.27088 21.0306 6.01023 20.3323 8.42381 19.0109C9.71379 18.3048 10.9074 17.425 11.9706 16.3995C12.2202 16.1586 12.4645 15.9072 12.6992 15.6515C13.4822 14.7918 14.1731 13.8509 14.7555 12.8507L14.794 12.7861C14.9911 12.4492 15.2083 12.121 15.4368 11.8085C15.4692 11.7658 15.5016 11.7213 15.5358 11.6759C17.6796 8.848 20.9479 7.22546 24.5 7.22546V2Z" fill="white"/>
<path d="M24.5 15.8053C20.9479 15.8053 17.6796 14.1828 15.534 11.354C15.5025 11.3113 15.4692 11.2685 15.4368 11.2222C15.1925 10.8906 14.9631 10.5397 14.7564 10.1801C14.174 9.18162 13.4813 8.23987 12.6984 7.38016C12.4645 7.1253 12.2202 6.87393 11.9706 6.63304C10.9101 5.6075 9.7173 4.72859 8.42381 4.02162C6.01023 2.70019 3.27088 2.00195 0.5 2.00195V7.22829C4.05205 7.22829 7.32036 8.84996 9.46595 11.6787C9.49923 11.7215 9.53076 11.766 9.56316 11.8088C9.79349 12.1221 10.0107 12.4511 10.2051 12.7845L10.2463 12.8526C10.8278 13.8502 11.5196 14.7911 12.3016 15.6517C12.5346 15.9066 12.7798 16.1579 13.0294 16.3988C14.0917 17.4244 15.2853 18.3041 16.5762 19.0102C18.9898 20.3317 21.7291 21.0299 24.5 21.0299V15.8053Z" fill="white"/>
</g>
<defs>
<clipPath id="clip0_29_754">
<rect width="24" height="24" fill="white" transform="translate(0.5)"/>
</clipPath>
</defs>
</svg>
