<svg width="24" height="24" viewBox="0 0 24 24" fill="none" xmlns="http://www.w3.org/2000/svg">
<path d="M16.1064 4.83651C16.0769 4.80698 16.0178 4.77745 15.9883 4.74792C15.693 4.57075 15.3091 4.5117 14.9548 4.62981L14.4233 4.80698C14.5119 4.95462 14.5709 5.10226 14.5709 5.27943V6.25386C14.5709 6.99206 14.069 7.67121 13.3603 7.90744L9.28539 9.17715H9.25586V11.3918L14.6005 9.70866H14.63C15.634 9.38385 16.3131 8.61612 16.5493 7.61216C16.6084 7.3464 16.6379 7.08065 16.6379 6.78537V5.78141C16.6379 5.72235 16.6379 5.69282 16.6379 5.63377C16.6084 5.4566 16.5198 5.2499 16.4017 5.10226C16.3131 5.01368 16.2245 4.92509 16.1064 4.83651Z" fill="white"/>
<path d="M6.42121 3.97988L14.01 1.55857C14.4234 1.44046 14.8072 1.3814 15.2206 1.35187C15.2797 1.35187 15.3683 1.35187 15.4273 1.35187H15.4568C15.6045 1.35187 15.7226 1.3814 15.8702 1.3814L14.9253 0.702252C13.9804 0.023103 12.6517 -0.183594 11.5001 0.170744L4.32471 2.44442L4.59046 2.65111L6.42121 3.97988Z" fill="white"/>
<path d="M16.8743 16.7061C16.9038 16.6766 16.9038 16.6176 16.9334 16.588C16.9924 16.4699 17.0515 16.3223 17.1105 16.2042C17.2582 15.8794 17.3172 15.525 17.3172 15.2297V13.8714C17.3172 13.7829 17.2877 13.7238 17.2877 13.6352C17.2286 13.3399 17.0515 13.0446 16.7857 12.8084C16.52 12.6017 16.1656 12.5427 15.8408 12.6017C15.8113 12.6017 15.7818 12.6313 15.7522 12.6313C15.7227 12.6608 15.7227 12.6608 15.6932 12.6608L15.5455 12.7198L15.0731 12.8675C15.1617 13.0151 15.2207 13.1628 15.2207 13.3399V14.6982C15.2207 15.6136 14.6302 16.4404 13.7443 16.7061L6.45084 19.0093C6.42131 19.0093 6.42131 19.0093 6.39178 19.0093C6.33273 19.0093 6.27367 18.9798 6.21461 18.9503C6.12603 18.9208 6.0965 18.8322 6.0965 18.7436V4.39289L4 2.85742V21.9917L14.5416 18.655C15.5751 18.3302 16.4018 17.5329 16.8743 16.7061Z" fill="white"/>
<path d="M18.203 10.6824C18.1439 10.6529 18.0848 10.5938 18.0848 10.5052C18.0848 10.4462 18.0848 10.3576 18.1439 10.2985C18.9116 9.29455 19.2955 8.0839 19.2955 6.69607V5.60353C19.2955 4.57004 18.6459 3.38891 17.6419 2.65071C17.5533 2.56212 17.4648 2.50307 17.3466 2.44401C17.3171 2.44401 17.2876 2.41448 17.2581 2.41448C16.6084 2.06014 15.5454 1.67628 14.1576 2.1192L6.65743 4.48146V18.3892L8.54724 17.7987L8.75394 17.7396V14.521C8.75394 14.4029 8.81299 14.2848 8.93111 14.2553L15.5159 12.1883C15.8702 12.0702 16.2246 12.0702 16.5494 12.1588C16.7561 12.2178 16.9332 12.3064 17.1104 12.4245C17.5829 12.7789 17.8486 13.2809 17.8486 13.8419V13.8714V15.2297C17.8486 15.4069 17.8191 15.6136 17.7896 15.7908C17.5533 17.1195 16.4017 18.655 14.7186 19.1865L5.53536 22.0803L4.32471 22.4641L6.42121 23.9996L15.7816 21.0468C18.3801 20.22 19.9451 18.0054 19.9451 15.1116V13.7238C19.9451 12.3655 18.9116 11.1253 18.203 10.6824ZM17.2285 6.75513C17.2285 6.87324 17.199 6.99135 17.199 7.10947C17.0809 8.6154 16.2246 9.767 14.8072 10.2099L9.10827 12.0407C9.07875 12.0407 9.04922 12.0407 9.01969 12.0407C8.96063 12.0407 8.93111 12.0111 8.87205 11.9816C8.78346 11.9521 8.75394 11.8635 8.75394 11.7749V8.99927V6.22362C8.75394 6.10551 8.81299 5.9874 8.93111 5.95787L14.8072 4.12712C15.3092 3.94995 15.8407 4.00901 16.2836 4.27476C16.3722 4.30429 16.4313 4.33382 16.4903 4.39287C16.638 4.48146 16.7561 4.59957 16.8447 4.71768C17.0218 4.95391 17.1695 5.21966 17.199 5.51494C17.2285 5.60353 17.2285 5.66258 17.2285 5.75117V6.75513Z" fill="white"/>
</svg>
