<svg width="25" height="24" viewBox="0 0 25 24" fill="none" xmlns="http://www.w3.org/2000/svg">
<g clip-path="url(#clip0_29_736)">
<path d="M8.42276 12.0047L15.5283 19.1149L20.0138 14.6294C20.8153 13.9076 22.0433 13.9404 22.8073 14.7044C23.5713 15.4684 23.6041 16.6964 22.8823 17.4979L16.9626 23.4129C16.1658 24.1957 14.8909 24.1957 14.0988 23.4129L5.55898 14.8685V19.9445C5.55898 21.0647 4.64969 21.974 3.52949 21.974C2.40929 21.974 1.5 21.0647 1.5 19.9445V4.05078C1.5 2.93057 2.40929 2.02129 3.52949 2.02129C4.64969 2.02129 5.55898 2.93057 5.55898 4.05078V9.12684L14.0988 0.587052C14.8956 -0.195684 16.1704 -0.195684 16.9626 0.587052L22.887 6.50679C23.6088 7.30827 23.576 8.53628 22.812 9.30026C22.048 10.0643 20.82 10.0971 20.0185 9.37526L15.533 4.88976L8.42276 12.0047ZM15.5377 9.97051C14.7175 9.97051 13.9769 10.4627 13.6582 11.222C13.3442 11.9813 13.5176 12.853 14.0988 13.4342C14.68 14.0154 15.5518 14.1888 16.3111 13.8748C17.0704 13.5608 17.5672 12.8202 17.5672 12C17.5672 11.461 17.3516 10.9454 16.9719 10.5611C16.5923 10.1861 16.0767 9.97051 15.5377 9.97051Z" fill="white"/>
</g>
<defs>
<clipPath id="clip0_29_736">
<rect width="24" height="24" fill="white" transform="translate(0.5)"/>
</clipPath>
</defs>
</svg>
