<svg width="133" height="60" viewBox="0 0 133 60" fill="none" xmlns="http://www.w3.org/2000/svg">
<path d="M124.443 14.102C121.589 8.86869 117.701 6.0545 112.123 6.0545C106.546 6.0545 102.758 8.45072 99.5723 12.5503C99.4266 12.7364 99.2266 13.0084 98.9866 13.3949C98.2352 13.8787 98.0781 11.0187 97.9152 9.90219C97.7295 8.62535 96.9952 7.67488 95.001 7.5804C86.5955 7.18819 72.8129 6.66715 67.2759 7.03932C63.9874 7.25976 43.1878 7.39432 35.968 7.3342C34.208 7.31988 32.5452 7.57182 31.5681 8.85724C30.8167 8.36483 30.011 7.96403 29.1653 7.64911C28.3596 7.34851 27.9682 6.82747 27.791 6.00583C27.4796 4.5429 26.8482 3.2088 25.7796 2.13809C24.4968 0.852663 23.0568 0.24001 21.0969 0.105455C19.0798 -0.0348258 17.0341 -0.186558 15.0627 0.735286C12.7913 1.79741 11.4942 3.4092 11.6771 5.9543C11.7599 7.09085 11.1457 8.17588 10.1228 8.67402C2.19157 12.536 -0.948362 22.307 3.00584 30.5921C3.56297 31.7602 3.68297 32.5503 2.68299 33.5609C1.31445 34.9466 0.711602 36.9076 0.323039 38.6826C-0.182665 40.8613 -0.0198109 42.7937 0.323039 44.3826C1.38587 49.6188 4.86294 52.4816 9.77141 53.8701C11.0228 54.2251 11.7828 54.812 12.1628 56.1232C12.8113 58.3648 15.2913 60.2142 19.9055 59.9824C23.4911 59.9824 28.2739 57.8781 28.1082 54.686C28.0739 54.0018 28.6024 53.7241 29.1538 53.4922C30.4024 52.9626 33.6395 51.242 36.1508 49.029C38.2108 47.214 38.6965 45.7281 39.4508 44.0877C39.5479 43.8787 39.8565 43.9331 39.8822 44.1621C40.0536 45.7568 40.3022 47.2254 40.6622 48.4622C42.5936 55.0897 51.2562 56.6042 57.2532 54.8807C58.9361 54.3969 61.136 53.0771 61.9531 51.7716C63.2588 49.6903 63.6902 47.3199 63.8188 44.8378C63.8617 44.0075 63.8617 42.7364 64.0274 42.7851C64.1931 42.7622 64.3931 45.2672 64.6931 46.6271C65.8616 51.9119 69.5616 54.7261 74.9014 55.3388C79.9213 55.9142 84.9584 55.9343 89.9583 55.0783C92.2811 54.6803 94.4496 53.8902 96.1524 52.2841C96.2924 52.1524 96.5067 52.1553 96.6467 52.2898C98.2266 53.8415 100.609 54.5486 103.061 54.6631C105.386 54.7691 107.184 53.7184 108.698 52.0837C111.084 49.51 111.949 46.3665 112.178 42.7679C112.183 42.6706 112.318 42.6534 112.349 42.7479C112.829 44.2738 113.221 45.6337 113.712 46.9592C114.741 49.7247 116.532 51.9262 119.086 53.3949C123.823 56.1175 129.935 54.2251 132.226 49.072C134.18 44.6803 132.749 29.3382 124.443 14.1077V14.102Z" fill="black"/>
<path d="M80.7075 32.0724C80.5494 33.6374 81.137 34.4238 82.4703 34.4314C85.656 34.44 88.8416 34.4801 92.0272 34.4314C92.9472 34.4171 93.4015 34.8036 93.7615 35.568C95.5529 39.3727 93.7815 43.5439 89.7473 44.6461C85.1388 45.9058 80.4161 45.5594 75.7133 45.3533C75.239 45.3332 74.7676 45.2674 74.2962 45.2072C70.9877 44.7921 69.1049 43.166 68.4278 39.9109C68.0906 38.2963 67.8335 36.6215 67.8592 34.9782C67.9735 27.0509 68.2078 19.1265 68.3592 11.2021C68.382 10.0627 68.7792 9.60175 69.9506 9.60747C77.6961 9.65328 85.4417 9.66187 93.1844 9.65901C94.2272 9.65901 94.87 10.0913 94.8843 11.1162C94.91 12.8969 95.1072 14.7435 94.7158 16.444C94.1043 19.1179 91.8501 20.0827 89.3559 20.3919C87.9959 20.5608 86.6045 20.5007 85.2274 20.5179C83.7617 20.535 82.296 20.5207 80.7046 20.5207V22.4732C81.5818 22.4732 82.4703 22.4446 83.356 22.4789C85.7274 22.5677 88.0988 22.6793 90.4673 22.7938C91.3244 22.8368 91.8844 23.2462 92.0415 24.1394C92.1158 24.5574 92.2672 24.961 92.3587 25.3762C93.1987 29.2897 91.353 31.789 87.3159 32.0753C85.7559 32.1869 84.1788 32.0839 82.6103 32.0781C82.0018 32.0781 81.3932 32.0781 80.7018 32.0781L80.7075 32.0724Z" fill="#88DD5D"/>
<path d="M56.5097 21.1474C56.7868 23.7984 56.4983 26.2376 56.6011 28.6911C56.7783 32.8566 56.8011 37.0278 56.8383 41.1961C56.844 41.8832 56.6668 42.5875 56.4725 43.2545C55.9668 44.9751 54.3926 46.1546 52.6041 46.1632C47.8984 46.1889 44.4871 42.8852 44.1071 37.6061C43.7557 32.7363 44.2985 27.8465 44.1671 22.9654C44.1328 21.6856 43.9385 21.1532 42.4271 20.947C39.9443 20.6063 38.5958 20.3143 36.7044 19.8706C35.3787 19.5585 34.4816 18.631 34.4445 17.2597C34.3559 15.2213 34.2759 13.2001 34.4245 11.7257C34.573 10.2514 35.693 9.75608 36.7558 9.75608C46.0699 9.72458 54.1469 9.69309 63.461 9.68164C65.3866 9.68164 65.6438 9.9164 65.7981 11.846C65.9695 13.9445 65.9495 16.0343 64.7495 17.9009C63.4353 19.9479 61.4839 20.8583 59.1125 20.99C58.3154 21.0329 57.5182 21.0844 56.5154 21.1474H56.5097Z" fill="#88DD5D"/>
<path d="M96.678 35.7688C97.0066 30.1261 97.538 24.5177 99.4522 19.1384C100.449 16.3327 101.958 13.8449 104.032 11.6806C108.058 7.47503 116.109 6.37283 120.52 13.3439C123.143 17.4893 124.7 22.0613 126.143 26.6677C127.26 30.2291 128.177 33.8707 128.866 37.5352C129.134 38.9637 128.949 40.7874 128.252 42.0327C126.217 45.6686 122.132 46.0121 119.335 42.9088C118.409 41.8839 117.655 40.5898 117.192 39.2872C116.226 36.5675 115.512 33.759 114.678 30.9935C114.186 29.3645 113.392 28.9151 111.283 29.0038C109.418 29.084 108.661 29.5764 108.455 31.3227C108.178 33.6731 108.329 36.0865 107.909 38.3997C107.598 40.1117 106.906 41.8753 105.946 43.3239C104.606 45.3422 102.678 45.5455 100.598 44.2572C97.9408 42.6082 96.9066 40.0373 96.6895 37.0513C96.658 36.6276 96.6837 36.1982 96.6837 35.7716L96.678 35.7688ZM110.932 22.2703C112.543 22.2703 113.032 21.9812 113.063 21.0765C113.115 19.585 112.043 17.9073 111.029 17.8959C109.883 17.8816 108.901 19.3273 108.963 20.9906C109.018 22.4307 110.149 22.1759 110.929 22.2703H110.932Z" fill="#88DD5D"/>
<path d="M23.7987 9.32343C26.2387 9.56677 28.5586 10.3054 30.4243 12.089C33.01 14.5625 32.6471 19.2719 29.7329 21.2072C28.7529 21.8599 27.9272 22.0918 26.8101 21.1843C24.713 19.478 22.2016 18.7509 19.4817 19.0429C18.6531 19.1316 17.8074 19.3979 17.0617 19.7672C16.6732 19.959 16.236 20.586 16.2818 20.961C16.3218 21.2988 16.9532 21.7168 17.3903 21.8284C19.5931 22.3896 21.8502 22.7589 24.033 23.3858C27.1958 24.2934 30.0329 25.7878 31.9786 28.5877C36.1499 34.5854 33.4414 42.5213 26.2673 44.9261C24.513 45.513 23.513 46.1227 23.6902 48.1497C23.773 49.0973 23.593 50.5688 22.9845 50.9639C21.9159 51.6567 20.4131 52.0174 19.1188 51.9601C16.1418 51.8256 14.7732 49.8244 15.2246 46.7497C15.2503 46.5694 15.2503 46.3833 15.2703 46.0769C14.1018 45.7964 12.9333 45.616 11.8361 45.2295C10.1019 44.614 8.3105 44.0386 6.73053 43.1225C4.09344 41.5965 3.3706 38.5562 4.73057 35.7849C5.90483 33.3944 8.44478 32.4726 11.2961 33.4145C13.2732 34.0672 15.2218 34.823 17.2303 35.3526C18.1074 35.5845 19.1074 35.4414 20.0417 35.3469C21.0474 35.2467 21.8816 34.8488 21.9302 33.6235C21.9816 32.3781 21.3502 31.5908 20.2074 31.3503C18.7703 31.0469 17.3017 30.9037 15.8418 30.7176C13.3875 30.4027 11.099 29.6756 9.24476 27.9693C6.33625 25.2925 4.74772 22.089 5.68198 18.0495C6.61339 14.0214 9.31333 11.5278 13.1304 10.3541C14.6304 9.89314 15.2675 9.3177 15.0704 7.78321C14.9932 7.182 15.0932 6.55217 15.1503 5.93666C15.3818 3.35435 16.1446 2.65008 18.8674 2.47831C21.3302 2.32372 23.1102 3.50608 23.5245 5.71908C23.7387 6.86423 23.7102 8.05518 23.7987 9.32057V9.32343Z" fill="#88DD5D"/>
<path d="M128.229 42.0256C128.926 40.7802 129.112 38.9594 128.843 37.528C128.155 33.8635 127.238 30.222 126.121 26.6606C125.738 25.4353 125.343 24.2099 124.923 22.9961C124.389 23.2709 123.829 23.5773 123.243 23.9208C116.784 27.7198 107.775 28.467 97.3955 27.7313C97.0183 30.3852 96.8126 33.0677 96.6583 35.7588C96.6583 36.1853 96.6326 36.6148 96.6641 37.0385C96.8812 40.0244 97.9155 42.5953 100.573 44.2443C102.653 45.5355 104.581 45.3293 105.921 43.311C106.884 41.8624 107.572 40.1017 107.884 38.3869C108.307 36.0708 108.152 33.6603 108.43 31.3099C108.635 29.5635 109.392 29.0711 111.258 28.9909C113.367 28.9022 114.161 29.3517 114.652 30.9806C115.487 33.7462 116.198 36.5546 117.166 39.2744C117.629 40.577 118.386 41.8681 119.309 42.8959C122.106 45.9992 126.192 45.6586 128.226 42.0199L128.229 42.0256Z" fill="#48AC51"/>
<path d="M67.8413 34.969C67.8184 36.6122 68.0755 38.2842 68.4098 39.9017C69.0869 43.1568 70.9698 44.7829 74.2783 45.198C74.7497 45.2581 75.2211 45.3239 75.6954 45.344C80.3953 45.5501 85.118 45.8965 89.7294 44.6369C93.7607 43.5347 95.5349 39.3663 93.7436 35.5587C93.3836 34.7972 92.9293 34.4078 92.0093 34.4221C88.8237 34.4708 85.638 34.4336 82.4524 34.4221C81.121 34.4183 80.5334 33.632 80.6896 32.0631C81.381 32.0631 81.9895 32.0631 82.5981 32.0631C84.1666 32.0689 85.7409 32.1691 87.3037 32.0603C90.6265 31.8255 92.4636 30.0849 92.5379 27.2936C84.8495 26.4691 76.5496 25.7534 68.0698 24.2246C67.9813 28.0523 67.8984 31.1356 67.8441 34.9632L67.8413 34.969Z" fill="#48AC51"/>
<path d="M6.714 43.1169C8.29397 44.0302 10.0825 44.6085 11.8196 45.224C12.9167 45.6133 14.0853 45.7908 15.2538 46.0714C15.2338 46.3777 15.2338 46.5638 15.2081 46.7442C14.7567 49.8189 16.1252 51.82 19.1023 51.9546C20.3966 52.0118 21.8994 51.6511 22.9679 50.9583C23.5765 50.5632 23.7536 49.0917 23.6736 48.1441C23.4994 46.1143 24.4965 45.5074 26.2507 44.9205C33.4249 42.5157 36.1334 34.5798 31.962 28.5821C30.0164 25.7851 27.1793 24.2878 24.0165 23.3803C21.8337 22.7533 19.5766 22.384 17.3738 21.8229C16.9338 21.7112 16.3052 21.2933 16.2652 20.9555C16.2195 20.5804 16.6566 19.9534 17.0452 19.7616C17.7909 19.3923 18.6366 19.1261 19.4652 19.0373C22.1851 18.7453 24.6993 19.4725 26.7936 21.1788C27.9078 22.0863 28.7335 21.8544 29.7164 21.2017C30.7906 20.4888 31.7677 19.2349 32.0449 17.5658C20.6623 14.9835 12.9853 16.1888 5.4026 20.2741C5.39403 23.2916 6.87971 25.7994 9.23109 27.9638C11.0853 29.67 13.3767 30.3972 15.8281 30.7121C17.2881 30.8982 18.7566 31.0442 20.1937 31.3448C21.3365 31.5853 21.968 32.3726 21.9165 33.6179C21.8651 34.8432 21.0337 35.2412 20.028 35.3414C19.0966 35.4358 18.0938 35.579 17.2166 35.3471C15.2081 34.8146 13.2596 34.0588 11.2825 33.4089C8.43111 32.467 5.89116 33.3918 4.7169 35.7794C3.35693 38.5506 4.07977 41.5881 6.71686 43.1169H6.714Z" fill="#48AC51"/>
<path d="M36.6853 19.8641C38.5767 20.3078 39.9253 20.5998 42.4081 20.9405C43.9195 21.1495 44.1138 21.6791 44.148 22.9588C44.2795 27.8429 43.7395 32.7298 44.088 37.5995C44.468 42.8786 47.8765 46.1824 52.585 46.1566C54.3764 46.148 55.9478 44.9685 56.4535 43.248C56.6506 42.5809 56.8278 41.8766 56.8192 41.1896C56.7821 37.0212 56.7592 32.8472 56.5821 28.6845C56.4821 26.3227 56.7021 24.8483 56.6392 22.704C49.2708 21.4358 46.7823 19.197 34.5254 17.8887C34.6368 18.8878 35.7739 19.6493 36.6825 19.8641H36.6853Z" fill="#48AC51"/>
<path d="M92.2928 41.6601C90.7528 42.8997 88.8728 43.249 87.0129 43.5496C83.3501 44.1422 79.6473 44.2138 76.0017 43.5553C70.7875 42.6135 69.6332 40.2029 69.239 35.4076C69.1161 33.9017 69.2161 32.3787 69.2161 30.8642C69.2075 30.3174 70.3532 29.8565 70.3247 31.7489C70.2932 33.6928 70.4989 35.6109 70.9304 37.5032C71.4189 39.6504 72.6989 41.056 74.9074 41.4168C80.1273 42.267 84.7129 42.5505 89.9014 41.3252C90.3957 41.1877 90.9785 41.0475 91.6213 40.515C91.8956 40.2859 92.2785 39.9481 92.5642 40.1542C93.0042 40.4692 92.9613 40.8356 92.7527 41.1333C92.6642 41.2593 92.4499 41.5084 92.2928 41.6601Z" fill="#2A851C"/>
<path d="M72.4184 23.6094C73.1298 23.6695 73.6298 24.0388 73.7127 24.7059C73.8155 25.5304 73.1555 25.9369 72.5013 25.9569C71.8927 25.977 71.287 25.5447 71.2813 24.8347C71.2756 24.1533 71.7841 23.7726 72.4184 23.6094Z" fill="#88DD5D"/>
<path d="M77.5844 35.5859C78.2958 35.6461 78.7958 36.0154 78.8787 36.6824C78.9815 37.5069 78.3216 37.9134 77.6673 37.9335C77.0587 37.9535 76.453 37.5212 76.4473 36.8112C76.4416 36.1299 76.9502 35.7491 77.5844 35.5859Z" fill="#88DD5D"/>
<path d="M84.5848 25.8262C85.6476 25.9178 86.3933 26.4703 86.5161 27.4609C86.6704 28.689 85.6847 29.296 84.7076 29.3303C83.7991 29.3618 82.8934 28.7148 82.8848 27.6555C82.8791 26.6392 83.6334 26.0695 84.5819 25.8262H84.5848Z" fill="#88DD5D"/>
<path d="M72.2094 11.5432C71.8979 11.5833 71.9237 11.8724 72.2179 11.8552C74.7693 11.8552 77.095 11.8581 79.6463 11.8495C83.0691 11.8381 86.4805 12.0356 89.8747 12.4478C91.5518 12.6511 91.7947 13.0176 91.5175 14.6981C91.3547 15.68 91.129 16.6534 90.9747 17.6354C90.9204 17.9875 90.8175 18.4685 91.3004 18.6059C91.6804 18.7147 91.8689 18.331 92.0404 18.0533C92.8003 16.8309 93.3603 15.5254 93.4661 14.074C93.6089 12.0929 92.8289 11.2139 90.8404 10.9649C86.1376 10.3723 81.0949 10.9248 76.7635 11.1452C75.1693 11.2283 73.4208 11.3829 72.2094 11.5432Z" fill="#FCFCFC"/>
<path d="M52.0854 33.2919C53.1797 33.3864 53.9483 33.9532 54.074 34.9753C54.2311 36.2407 53.2197 36.8676 52.2112 36.8991C51.2769 36.9306 50.3426 36.2664 50.3341 35.1728C50.3255 34.125 51.1055 33.5381 52.0826 33.2891L52.0854 33.2919Z" fill="#88DD5D"/>
<path d="M47.0356 25.2305C47.747 25.2906 48.247 25.6599 48.3299 26.3269C48.4327 27.1515 47.7727 27.558 47.1185 27.578C46.5099 27.5981 45.9042 27.1658 45.8985 26.4558C45.8928 25.7744 46.4013 25.3937 47.0356 25.2305Z" fill="#88DD5D"/>
<path d="M52.5142 44.2532C48.8429 44.2074 45.9143 41.2987 45.5486 37.8232C45.4858 37.2163 45.3372 36.6179 45.2944 36.0082C45.2715 35.6675 45.0686 35.135 45.5486 35.0262C46.0658 34.9088 46.0429 35.447 46.1315 35.7992C46.54 37.3966 46.9258 38.9798 47.9657 40.3511C49.3628 42.1919 51.4885 42.9649 53.7142 42.2521C53.8942 42.1948 54.0656 42.1089 54.2456 42.0545C54.6799 41.9286 55.1284 41.8856 55.3684 42.3551C55.5998 42.8046 55.197 43.0565 54.9227 43.2856C54.0913 43.9841 53.0913 44.2275 52.5085 44.2504L52.5142 44.2532Z" fill="#2A851C"/>
<path d="M39.7913 11.5457C41.2855 11.7061 43.4255 11.7175 45.2254 11.7547C50.2796 11.8606 55.3709 12.1011 60.4222 12.625C62.2108 12.8111 62.4193 13.1375 62.1251 14.9354C61.9565 15.9631 61.7336 16.9823 61.5679 18.0101C61.5194 18.3193 61.4336 18.7344 61.8479 18.8689C62.1651 18.972 62.3565 18.6685 62.5136 18.4367C63.405 17.1255 64.1307 15.7513 64.1279 14.108C64.1279 12.1584 63.4136 11.3453 61.4565 11.1564C54.5309 10.4922 45.954 10.9302 40.6884 11.2652C39.8941 11.3167 39.1827 11.4627 39.7913 11.5457Z" fill="#FCFCFC"/>
<path d="M126.017 42.3235C123.785 43.8236 121.225 43.3198 119.551 41.0667C118.497 39.6467 117.937 38.0177 117.466 36.343C117.457 36.0567 117.448 35.7704 117.437 35.487C117.274 34.8256 117.228 34.1643 117.463 33.5059C118.348 33.6605 118.117 34.4907 118.245 34.9917C118.651 36.572 119.26 38.0149 120.211 39.3518C121.248 40.8062 122.477 41.7166 124.371 41.4961C125.042 41.4188 125.874 41.2471 126.017 42.3235Z" fill="#2A851C"/>
<path d="M102.58 42.9004C101.32 42.7802 100.34 42.1274 99.64 41.1226C98.2343 39.1014 97.9429 36.751 97.7915 34.3748C97.7743 34.1142 97.6915 33.7278 98.06 33.6619C98.5114 33.5846 98.5657 33.9911 98.62 34.3147C98.9057 36.0553 99.3514 37.753 100.266 39.2703C100.983 40.4584 101.777 41.6665 103.528 41.0395C103.986 40.8763 104.266 41.1712 104.457 41.5033C104.714 41.9528 104.351 42.2133 104.051 42.4309C103.623 42.7401 103.146 42.9577 102.583 42.9004H102.58Z" fill="#2A851C"/>
<path d="M121.354 27.2168C122.065 27.2769 122.565 27.6462 122.648 28.3133C122.751 29.1378 122.091 29.5443 121.437 29.5643C120.828 29.5844 120.223 29.1521 120.217 28.4421C120.211 27.7607 120.72 27.38 121.354 27.2168Z" fill="#88DD5D"/>
<path d="M104.461 26.75C105.173 26.8101 105.673 27.1794 105.756 27.8465C105.858 28.671 105.199 29.0775 104.544 29.0976C103.936 29.1176 103.33 28.6853 103.324 27.9753C103.319 27.2939 103.827 26.9132 104.461 26.75Z" fill="#88DD5D"/>
<path d="M103.198 34.4277C104.261 34.5193 105.007 35.0719 105.129 36.0624C105.284 37.2906 104.298 37.8975 103.321 37.9319C102.412 37.9634 101.507 37.3164 101.498 36.2571C101.492 35.2408 102.247 34.6711 103.195 34.4277H103.198Z" fill="#88DD5D"/>
<path d="M108.719 11.3856C109.09 11.3684 109.462 11.3684 109.83 11.3284C113.522 10.9361 116.001 12.4306 118.061 15.7028C118.95 17.0598 119.621 18.6029 120.279 20.2204C120.421 20.5754 120.601 21.1537 121.167 20.9075C121.581 20.7272 121.416 20.2405 121.358 19.8769C121.016 17.6839 120.173 15.7057 118.916 13.8734C116.613 10.521 113.09 9.48181 108.719 11.3856Z" fill="#FCFCFC"/>
<path d="M29.4449 31.6546C30.7734 31.6317 31.9106 32.7511 31.9048 34.0766C31.902 35.1989 30.6563 36.4499 29.5192 36.4729C28.4621 36.4958 27.1964 35.1788 27.1992 34.0595C27.2049 32.6824 28.1449 31.6747 29.442 31.6546H29.4449Z" fill="#88DD5D"/>
<path d="M5.44282 36.1484C5.6371 36.6351 5.77139 36.8413 5.79996 37.0588C6.18566 40.1479 8.28562 41.4104 11.037 42.0173C12.1912 42.2721 13.3284 42.587 14.5255 42.5555C15.1569 42.5384 15.7426 42.6987 15.6455 43.4717C15.5626 44.1187 15.0455 44.1387 14.4512 44.1015C12.1255 43.9469 9.85701 43.6663 7.7742 42.4668C5.6171 41.2272 4.65141 38.9598 5.44568 36.1484H5.44282Z" fill="#2A851C"/>
<path d="M16.326 45.3896C17.0117 45.7446 17.0974 46.1654 17.0889 46.5863C17.0374 48.7334 19.0517 49.6037 20.8745 49.2802C21.0116 49.2545 21.1402 49.1686 21.2774 49.1485C21.8345 49.0626 22.5059 48.8622 22.7259 49.5923C22.9573 50.3624 22.2231 50.5342 21.7202 50.7031C20.1402 51.2356 18.6374 50.9722 17.3289 49.9673C15.7946 48.7878 16.2518 47.1302 16.326 45.3867V45.3896Z" fill="#2A851C"/>
<path d="M11.2237 25.9085C10.7666 25.877 10.1951 25.585 10.2409 24.8464C10.278 24.2423 10.5751 23.6096 11.3751 23.6612C12.0494 23.7041 12.618 24.062 12.6151 24.7691C12.6151 25.4104 12.2437 25.9371 11.2237 25.9085Z" fill="#88DD5D"/>
<path d="M25.8116 17.7405C25.3545 17.709 24.783 17.417 24.8287 16.6784C24.8659 16.0743 25.163 15.4417 25.963 15.4932C26.6373 15.5361 27.2058 15.894 27.203 16.6011C27.203 17.2424 26.8316 17.7692 25.8116 17.7405Z" fill="#88DD5D"/>
<path d="M12.4112 40.7562C11.9541 40.7247 11.3826 40.4327 11.4284 39.694C11.4655 39.09 11.7626 38.4573 12.5626 38.5088C13.2369 38.5518 13.8055 38.9096 13.8026 39.6167C13.8026 40.258 13.4312 40.7848 12.4112 40.7562Z" fill="#88DD5D"/>
<path d="M25.043 10.8633C25.7715 11.3242 26.1572 11.5933 26.5686 11.8223C29.1572 13.2824 30.3314 15.4582 29.98 18.4356C29.9343 18.8135 29.5972 19.4089 30.1943 19.5235C30.6857 19.6179 30.7657 18.9852 30.9028 18.6016C32.2314 14.8513 29.5772 11.1209 25.0458 10.8633H25.043Z" fill="#FCFCFC"/>
<path d="M22.8746 8.58502C23.2946 6.83008 23.0203 5.27554 21.7147 4.04451C20.8632 3.24291 19.7376 3.15416 18.5176 3.74963C21.1118 4.41382 22.0375 6.42069 22.8746 8.58502Z" fill="#FCFCFC"/>
</svg>
