<svg width="24" height="24" viewBox="0 0 24 24" fill="none" xmlns="http://www.w3.org/2000/svg">
<mask id="mask0_29_742" style="mask-type:luminance" maskUnits="userSpaceOnUse" x="0" y="0" width="24" height="24">
<path d="M24 0H0V24H24V0Z" fill="white"/>
</mask>
<g mask="url(#mask0_29_742)">
<mask id="mask1_29_742" style="mask-type:luminance" maskUnits="userSpaceOnUse" x="0" y="4" width="24" height="15">
<path d="M24 4.23438H0V18.352H24V4.23438Z" fill="white"/>
</mask>
<g mask="url(#mask1_29_742)">
<path d="M13.7001 6.11374L13.7039 6.10769C14.6599 4.51531 17.1167 4.51986 18.1101 6.03782L23.2807 14.3446C23.7807 15.1907 23.6917 16.0427 23.2684 16.6876C22.8389 17.3421 22.0576 17.7927 21.1578 17.7859H21.1552H10.2491C9.34722 17.7859 8.63929 17.35 8.26518 16.7604C7.89311 16.174 7.84398 15.4286 8.27139 14.7563L8.27238 14.7547L13.7001 6.11374Z" fill="white"/>
<path d="M15.8152 15.0035L15.8178 15.0077C16.4508 15.9942 17.0248 16.8862 17.8118 17.5161C17.9402 17.6189 18.0737 17.7142 18.2132 17.802H13.7213H2.88392C0.828381 17.7872 -0.208145 15.8278 0.687659 14.3795C0.687535 14.3797 0.687783 14.3793 0.687659 14.3795L5.7947 6.20719L5.79848 6.20115L5.80201 6.19496C6.78669 4.46785 9.15668 4.56841 10.1582 5.93667L14.534 12.9757L14.5364 12.9794L14.5368 12.9801L14.5382 12.9824L14.5438 12.991L14.5652 13.0245L14.6437 13.1476C14.71 13.2516 14.8016 13.3953 14.9027 13.5541C15.1048 13.8716 15.3442 14.2486 15.4952 14.4892C15.4954 14.4895 15.4955 14.4897 15.4956 14.49L15.8152 15.0035Z" fill="white"/>
</g>
</g>
</svg>
